<svg width="217" height="44" viewBox="0 0 217 44" fill="none" xmlns="http://www.w3.org/2000/svg">
<rect width="217" height="44" rx="12" fill="#793EF5"/>
<path d="M28.4912 22H29.3329" stroke="white" stroke-width="1.5" stroke-linecap="round" stroke-linejoin="round"/>
<path d="M22.667 22H25.842" stroke="white" stroke-width="1.5" stroke-linecap="round" stroke-linejoin="round"/>
<path d="M26 25.3332V18.6665" stroke="white" stroke-width="1.5" stroke-linecap="round" stroke-linejoin="round"/>
<path d="M17.667 22.8665V24.4998C17.667 28.6665 19.3337 30.3332 23.5003 30.3332H28.5003C32.667 30.3332 34.3337 28.6665 34.3337 24.4998V19.4998C34.3337 15.3332 32.667 13.6665 28.5003 13.6665H23.5003C19.3337 13.6665 17.667 15.3332 17.667 19.4998" stroke="white" stroke-width="1.5" stroke-linecap="round" stroke-linejoin="round"/>
<path d="M48.7665 27.196C47.5998 27.196 46.6712 26.86 45.9805 26.188C45.2898 25.5067 44.9445 24.5173 44.9445 23.22V20.98C44.9445 19.6827 45.2898 18.698 45.9805 18.026C46.6712 17.3447 47.5998 17.004 48.7665 17.004C49.9238 17.004 50.8105 17.326 51.4265 17.97C52.0518 18.614 52.3645 19.496 52.3645 20.616V20.686H51.2025V20.574C51.2025 19.8367 51.0018 19.2347 50.6005 18.768C50.2085 18.292 49.5972 18.054 48.7665 18.054C47.9358 18.054 47.2872 18.3107 46.8205 18.824C46.3538 19.328 46.1205 20.0373 46.1205 20.952V23.248C46.1205 24.1627 46.3538 24.8767 46.8205 25.39C47.2872 25.894 47.9358 26.146 48.7665 26.146C49.5972 26.146 50.2085 25.9127 50.6005 25.446C51.0018 24.97 51.2025 24.3633 51.2025 23.626V23.402H52.3645V23.584C52.3645 24.704 52.0518 25.586 51.4265 26.23C50.8105 26.874 49.9238 27.196 48.7665 27.196ZM54.6489 27V20.154H55.7269V20.994H55.9229C56.0442 20.6953 56.2309 20.476 56.4829 20.336C56.7349 20.196 57.0662 20.126 57.4769 20.126H58.2889V21.134H57.4069C56.9122 21.134 56.5109 21.274 56.2029 21.554C55.9042 21.8247 55.7549 22.2493 55.7549 22.828V27H54.6489ZM63.2162 27.196C62.5255 27.196 61.9188 27.0513 61.3962 26.762C60.8735 26.4633 60.4675 26.048 60.1782 25.516C59.8888 24.984 59.7442 24.368 59.7442 23.668V23.5C59.7442 22.7907 59.8888 22.17 60.1782 21.638C60.4675 21.106 60.8688 20.6953 61.3822 20.406C61.8955 20.1073 62.4835 19.958 63.1462 19.958C63.7902 19.958 64.3595 20.098 64.8542 20.378C65.3488 20.6487 65.7362 21.0407 66.0162 21.554C66.2962 22.0673 66.4362 22.6693 66.4362 23.36V23.864H60.8502C60.8782 24.6013 61.1162 25.18 61.5642 25.6C62.0122 26.0107 62.5722 26.216 63.2442 26.216C63.8322 26.216 64.2848 26.0807 64.6022 25.81C64.9195 25.5393 65.1622 25.2173 65.3302 24.844L66.2822 25.306C66.1422 25.5953 65.9462 25.8847 65.6942 26.174C65.4515 26.4633 65.1295 26.706 64.7282 26.902C64.3362 27.098 63.8322 27.196 63.2162 27.196ZM60.8642 22.954H65.3162C65.2788 22.3193 65.0595 21.8247 64.6582 21.47C64.2662 21.1153 63.7622 20.938 63.1462 20.938C62.5208 20.938 62.0075 21.1153 61.6062 21.47C61.2048 21.8247 60.9575 22.3193 60.8642 22.954ZM70.8653 27.196C70.3893 27.196 69.9553 27.112 69.5633 26.944C69.1713 26.776 68.8633 26.5333 68.6393 26.216C68.4153 25.8987 68.3033 25.5113 68.3033 25.054C68.3033 24.5873 68.4153 24.2047 68.6393 23.906C68.8633 23.598 69.1713 23.3693 69.5633 23.22C69.9553 23.0613 70.394 22.982 70.8793 22.982H73.1893V22.478C73.1893 21.9927 73.0447 21.61 72.7553 21.33C72.4753 21.05 72.0553 20.91 71.4953 20.91C70.9447 20.91 70.5153 21.0453 70.2073 21.316C69.8993 21.5773 69.6893 21.932 69.5773 22.38L68.5413 22.044C68.6533 21.6613 68.8307 21.316 69.0733 21.008C69.316 20.6907 69.638 20.4387 70.0393 20.252C70.45 20.056 70.94 19.958 71.5093 19.958C72.3867 19.958 73.068 20.1867 73.5533 20.644C74.0387 21.092 74.2813 21.7267 74.2813 22.548V25.642C74.2813 25.922 74.412 26.062 74.6733 26.062H75.3033V27H74.3373C74.0293 27 73.782 26.916 73.5953 26.748C73.4087 26.5707 73.3153 26.3373 73.3153 26.048V25.978H73.1473C73.0447 26.1553 72.9047 26.342 72.7273 26.538C72.5593 26.7247 72.326 26.8787 72.0273 27C71.7287 27.1307 71.3413 27.196 70.8653 27.196ZM70.9913 26.244C71.6447 26.244 72.172 26.0527 72.5733 25.67C72.984 25.278 73.1893 24.732 73.1893 24.032V23.878H70.9213C70.4827 23.878 70.1187 23.976 69.8293 24.172C69.5493 24.3587 69.4093 24.6433 69.4093 25.026C69.4093 25.4087 69.554 25.7073 69.8433 25.922C70.142 26.1367 70.5247 26.244 70.9913 26.244ZM79.2869 27C78.8949 27 78.5916 26.8927 78.3769 26.678C78.1716 26.4633 78.0689 26.1693 78.0689 25.796V21.12H76.0109V20.154H78.0689V17.718H79.1749V20.154H81.4149V21.12H79.1749V25.628C79.1749 25.908 79.3102 26.048 79.5809 26.048H81.1069V27H79.2869ZM86.4962 27.196C85.8056 27.196 85.1989 27.0513 84.6762 26.762C84.1536 26.4633 83.7476 26.048 83.4582 25.516C83.1689 24.984 83.0242 24.368 83.0242 23.668V23.5C83.0242 22.7907 83.1689 22.17 83.4582 21.638C83.7476 21.106 84.1489 20.6953 84.6622 20.406C85.1756 20.1073 85.7636 19.958 86.4262 19.958C87.0702 19.958 87.6396 20.098 88.1342 20.378C88.6289 20.6487 89.0162 21.0407 89.2962 21.554C89.5762 22.0673 89.7162 22.6693 89.7162 23.36V23.864H84.1302C84.1582 24.6013 84.3962 25.18 84.8442 25.6C85.2922 26.0107 85.8522 26.216 86.5242 26.216C87.1122 26.216 87.5649 26.0807 87.8822 25.81C88.1996 25.5393 88.4422 25.2173 88.6102 24.844L89.5622 25.306C89.4222 25.5953 89.2262 25.8847 88.9742 26.174C88.7316 26.4633 88.4096 26.706 88.0082 26.902C87.6162 27.098 87.1122 27.196 86.4962 27.196ZM84.1442 22.954H88.5962C88.5589 22.3193 88.3396 21.8247 87.9382 21.47C87.5462 21.1153 87.0422 20.938 86.4262 20.938C85.8009 20.938 85.2876 21.1153 84.8862 21.47C84.4849 21.8247 84.2376 22.3193 84.1442 22.954ZM95.9991 27V17.2H98.2811L101.697 26.258H101.879V17.2H103.041V27H100.759L97.3571 17.928H97.1611V27H95.9991ZM108.874 27.196C108.183 27.196 107.577 27.0513 107.054 26.762C106.531 26.4633 106.125 26.048 105.836 25.516C105.547 24.984 105.402 24.368 105.402 23.668V23.5C105.402 22.7907 105.547 22.17 105.836 21.638C106.125 21.106 106.527 20.6953 107.04 20.406C107.553 20.1073 108.141 19.958 108.804 19.958C109.448 19.958 110.017 20.098 110.512 20.378C111.007 20.6487 111.394 21.0407 111.674 21.554C111.954 22.0673 112.094 22.6693 112.094 23.36V23.864H106.508C106.536 24.6013 106.774 25.18 107.222 25.6C107.67 26.0107 108.23 26.216 108.902 26.216C109.49 26.216 109.943 26.0807 110.26 25.81C110.577 25.5393 110.82 25.2173 110.988 24.844L111.94 25.306C111.8 25.5953 111.604 25.8847 111.352 26.174C111.109 26.4633 110.787 26.706 110.386 26.902C109.994 27.098 109.49 27.196 108.874 27.196ZM106.522 22.954H110.974C110.937 22.3193 110.717 21.8247 110.316 21.47C109.924 21.1153 109.42 20.938 108.804 20.938C108.179 20.938 107.665 21.1153 107.264 21.47C106.863 21.8247 106.615 22.3193 106.522 22.954ZM115.238 27L113.866 20.154H114.986L116.12 26.258H116.316L117.814 20.154H119.648L121.146 26.258H121.342L122.476 20.154H123.596L122.224 27H120.334L118.822 20.896H118.64L117.128 27H115.238ZM129.851 27V17.2H131.027V27H129.851ZM133.711 27V20.154H134.789V21.316H134.985C135.134 20.9893 135.386 20.6953 135.741 20.434C136.105 20.1633 136.637 20.028 137.337 20.028C137.85 20.028 138.308 20.1353 138.709 20.35C139.12 20.5647 139.446 20.882 139.689 21.302C139.932 21.722 140.053 22.24 140.053 22.856V27H138.947V22.94C138.947 22.2587 138.774 21.764 138.429 21.456C138.093 21.148 137.636 20.994 137.057 20.994C136.394 20.994 135.853 21.2087 135.433 21.638C135.022 22.0673 134.817 22.7067 134.817 23.556V27H133.711ZM145.026 27C144.634 27 144.33 26.8927 144.116 26.678C143.91 26.4633 143.808 26.1693 143.808 25.796V21.12H141.75V20.154H143.808V17.718H144.914V20.154H147.154V21.12H144.914V25.628C144.914 25.908 145.049 26.048 145.32 26.048H146.846V27H145.026ZM152.235 27.196C151.544 27.196 150.938 27.0513 150.415 26.762C149.892 26.4633 149.486 26.048 149.197 25.516C148.908 24.984 148.763 24.368 148.763 23.668V23.5C148.763 22.7907 148.908 22.17 149.197 21.638C149.486 21.106 149.888 20.6953 150.401 20.406C150.914 20.1073 151.502 19.958 152.165 19.958C152.809 19.958 153.378 20.098 153.873 20.378C154.368 20.6487 154.755 21.0407 155.035 21.554C155.315 22.0673 155.455 22.6693 155.455 23.36V23.864H149.869C149.897 24.6013 150.135 25.18 150.583 25.6C151.031 26.0107 151.591 26.216 152.263 26.216C152.851 26.216 153.304 26.0807 153.621 25.81C153.938 25.5393 154.181 25.2173 154.349 24.844L155.301 25.306C155.161 25.5953 154.965 25.8847 154.713 26.174C154.47 26.4633 154.148 26.706 153.747 26.902C153.355 27.098 152.851 27.196 152.235 27.196ZM149.883 22.954H154.335C154.298 22.3193 154.078 21.8247 153.677 21.47C153.285 21.1153 152.781 20.938 152.165 20.938C151.54 20.938 151.026 21.1153 150.625 21.47C150.224 21.8247 149.976 22.3193 149.883 22.954ZM157.784 27V20.154H158.862V20.994H159.058C159.179 20.6953 159.366 20.476 159.618 20.336C159.87 20.196 160.201 20.126 160.612 20.126H161.424V21.134H160.542C160.047 21.134 159.646 21.274 159.338 21.554C159.039 21.8247 158.89 22.2493 158.89 22.828V27H157.784ZM163.461 27V20.154H164.539V21.316H164.735C164.885 20.9893 165.137 20.6953 165.491 20.434C165.855 20.1633 166.387 20.028 167.087 20.028C167.601 20.028 168.058 20.1353 168.459 20.35C168.87 20.5647 169.197 20.882 169.439 21.302C169.682 21.722 169.803 22.24 169.803 22.856V27H168.697V22.94C168.697 22.2587 168.525 21.764 168.179 21.456C167.843 21.148 167.386 20.994 166.807 20.994C166.145 20.994 165.603 21.2087 165.183 21.638C164.773 22.0673 164.567 22.7067 164.567 23.556V27H163.461ZM175.205 27.196C174.356 27.196 173.637 27 173.049 26.608C172.471 26.216 172.121 25.5953 171.999 24.746L173.049 24.508C173.124 24.956 173.264 25.3107 173.469 25.572C173.675 25.824 173.927 26.006 174.225 26.118C174.533 26.2207 174.86 26.272 175.205 26.272C175.719 26.272 176.125 26.1693 176.423 25.964C176.722 25.7587 176.871 25.4833 176.871 25.138C176.871 24.7833 176.727 24.536 176.437 24.396C176.157 24.2467 175.77 24.1253 175.275 24.032L174.701 23.934C174.263 23.8593 173.861 23.7427 173.497 23.584C173.133 23.4253 172.844 23.2107 172.629 22.94C172.415 22.6693 172.307 22.3287 172.307 21.918C172.307 21.302 172.545 20.8213 173.021 20.476C173.497 20.1307 174.127 19.958 174.911 19.958C175.686 19.958 176.311 20.1353 176.787 20.49C177.273 20.8353 177.585 21.3253 177.725 21.96L176.689 22.226C176.605 21.7313 176.405 21.386 176.087 21.19C175.77 20.9847 175.378 20.882 174.911 20.882C174.445 20.882 174.076 20.9707 173.805 21.148C173.535 21.316 173.399 21.568 173.399 21.904C173.399 22.2307 173.525 22.4733 173.777 22.632C174.039 22.7813 174.384 22.8933 174.813 22.968L175.387 23.066C175.873 23.15 176.307 23.2667 176.689 23.416C177.081 23.556 177.389 23.7613 177.613 24.032C177.847 24.3027 177.963 24.6573 177.963 25.096C177.963 25.768 177.711 26.286 177.207 26.65C176.713 27.014 176.045 27.196 175.205 27.196ZM180.23 27V17.2H181.336V21.246H181.532C181.625 21.0407 181.765 20.8493 181.952 20.672C182.148 20.4853 182.395 20.3313 182.694 20.21C183.002 20.0887 183.389 20.028 183.856 20.028C184.369 20.028 184.827 20.14 185.228 20.364C185.639 20.5787 185.965 20.896 186.208 21.316C186.451 21.7267 186.572 22.24 186.572 22.856V27H185.466V22.94C185.466 22.2587 185.293 21.764 184.948 21.456C184.612 21.148 184.155 20.994 183.576 20.994C182.913 20.994 182.372 21.2087 181.952 21.638C181.541 22.0673 181.336 22.7067 181.336 23.556V27H180.23ZM189.216 27V20.154H190.322V27H189.216ZM189.776 19.09C189.533 19.09 189.328 19.0107 189.16 18.852C189.001 18.6933 188.922 18.4927 188.922 18.25C188.922 17.998 189.001 17.7927 189.16 17.634C189.328 17.4753 189.533 17.396 189.776 17.396C190.019 17.396 190.219 17.4753 190.378 17.634C190.537 17.7927 190.616 17.998 190.616 18.25C190.616 18.4927 190.537 18.6933 190.378 18.852C190.219 19.0107 190.019 19.09 189.776 19.09ZM193.048 29.8V20.154H194.126V21.288H194.322C194.499 20.9427 194.784 20.6347 195.176 20.364C195.577 20.0933 196.132 19.958 196.842 19.958C197.43 19.958 197.966 20.1027 198.452 20.392C198.946 20.672 199.338 21.0733 199.628 21.596C199.926 22.1187 200.076 22.7487 200.076 23.486V23.668C200.076 24.396 199.931 25.026 199.642 25.558C199.352 26.09 198.96 26.496 198.466 26.776C197.98 27.056 197.439 27.196 196.842 27.196C196.366 27.196 195.96 27.1307 195.624 27C195.297 26.8787 195.031 26.72 194.826 26.524C194.62 26.328 194.462 26.1273 194.35 25.922H194.154V29.8H193.048ZM196.548 26.216C197.257 26.216 197.831 25.992 198.27 25.544C198.718 25.0867 198.942 24.452 198.942 23.64V23.514C198.942 22.702 198.718 22.072 198.27 21.624C197.831 21.1667 197.257 20.938 196.548 20.938C195.848 20.938 195.269 21.1667 194.812 21.624C194.364 22.072 194.14 22.702 194.14 23.514V23.64C194.14 24.452 194.364 25.0867 194.812 25.544C195.269 25.992 195.848 26.216 196.548 26.216Z" fill="white"/>
</svg>
