<svg width="1135" height="44" viewBox="0 0 1135 44" fill="none" xmlns="http://www.w3.org/2000/svg">
<path d="M2.208 33V10.6H6.08V33H2.208ZM10.9173 33V17.192H14.5333V19.4H15.0773C15.3546 18.8027 15.8559 18.2373 16.5813 17.704C17.3066 17.1707 18.4053 16.904 19.8773 16.904C21.0933 16.904 22.1706 17.1813 23.1093 17.736C24.0479 18.2907 24.7733 19.0587 25.2853 20.04C25.8186 21.0213 26.0853 22.184 26.0853 23.528V33H22.4053V23.816C22.4053 22.536 22.0853 21.5867 21.4453 20.968C20.8266 20.328 19.9413 20.008 18.7893 20.008C17.4879 20.008 16.4639 20.4453 15.7173 21.32C14.9706 22.1733 14.5973 23.4 14.5973 25V33H10.9173ZM36.4833 33C35.4593 33 34.6379 32.7013 34.0193 32.104C33.4219 31.4853 33.1233 30.6533 33.1233 29.608V20.232H28.9953V17.192H33.1233V12.104H36.8033V17.192H41.3473V20.232H36.8033V29C36.8033 29.64 37.1019 29.96 37.6993 29.96H40.8673V33H36.4833ZM52.0618 33.448C50.4831 33.448 49.0858 33.1173 47.8698 32.456C46.6751 31.7733 45.7364 30.824 45.0538 29.608C44.3924 28.3707 44.0618 26.9307 44.0618 25.288V24.904C44.0618 23.24 44.3924 21.8 45.0538 20.584C45.7151 19.368 46.6431 18.4293 47.8378 17.768C49.0324 17.0853 50.4084 16.744 51.9658 16.744C53.5018 16.744 54.8458 17.0853 55.9978 17.768C57.1498 18.4293 58.0458 19.368 58.6858 20.584C59.3258 21.8 59.6458 23.2187 59.6458 24.84V26.152H47.7738C47.8164 27.3893 48.2538 28.3813 49.0858 29.128C49.9178 29.8747 50.9418 30.248 52.1578 30.248C53.3524 30.248 54.2378 29.992 54.8138 29.48C55.3898 28.9467 55.8271 28.3493 56.1258 27.688L59.1658 29.256C58.8671 29.832 58.4298 30.4507 57.8538 31.112C57.2991 31.752 56.5524 32.3067 55.6138 32.776C54.6751 33.224 53.4911 33.448 52.0618 33.448ZM47.8058 23.368H55.9018C55.8164 22.3227 55.4111 21.4907 54.6858 20.872C53.9818 20.2533 53.0644 19.944 51.9338 19.944C50.7604 19.944 49.8218 20.2533 49.1178 20.872C48.4138 21.4907 47.9764 22.3227 47.8058 23.368ZM63.7235 33V17.192H67.3395V19.016H67.8835C68.1182 18.3547 68.5128 17.8747 69.0675 17.576C69.6222 17.2773 70.2835 17.128 71.0515 17.128H72.9715V20.392H70.9875C69.9208 20.392 69.0568 20.68 68.3955 21.256C67.7342 21.8107 67.4035 22.6747 67.4035 23.848V33H63.7235ZM76.5235 33V17.192H80.1395V19.4H80.6835C80.9608 18.8027 81.4622 18.2373 82.1875 17.704C82.9128 17.1707 84.0115 16.904 85.4835 16.904C86.6995 16.904 87.7768 17.1813 88.7155 17.736C89.6542 18.2907 90.3795 19.0587 90.8915 20.04C91.4248 21.0213 91.6915 22.184 91.6915 23.528V33H88.0115V23.816C88.0115 22.536 87.6915 21.5867 87.0515 20.968C86.4328 20.328 85.5475 20.008 84.3955 20.008C83.0942 20.008 82.0702 20.4453 81.3235 21.32C80.5768 22.1733 80.2035 23.4 80.2035 25V33H76.5235ZM103.039 33.448C100.991 33.448 99.3057 33 97.983 32.104C96.6603 31.208 95.8603 29.896 95.583 28.168L98.975 27.304C99.1243 28.1147 99.391 28.7547 99.775 29.224C100.159 29.6933 100.628 30.024 101.183 30.216C101.759 30.408 102.378 30.504 103.039 30.504C104.042 30.504 104.788 30.3227 105.279 29.96C105.791 29.5973 106.047 29.1387 106.047 28.584C106.047 28.008 105.802 27.5813 105.311 27.304C104.842 27.0267 104.116 26.792 103.135 26.6L102.143 26.44C101.055 26.2267 100.063 25.9387 99.167 25.576C98.271 25.192 97.5457 24.68 96.991 24.04C96.4577 23.3787 96.191 22.5467 96.191 21.544C96.191 20.008 96.7563 18.824 97.887 17.992C99.039 17.16 100.543 16.744 102.399 16.744C104.17 16.744 105.631 17.1387 106.783 17.928C107.935 18.7173 108.682 19.7733 109.023 21.096L105.631 22.12C105.46 21.224 105.087 20.5947 104.511 20.232C103.935 19.848 103.231 19.656 102.399 19.656C101.546 19.656 100.884 19.8053 100.415 20.104C99.967 20.4027 99.743 20.8293 99.743 21.384C99.743 21.9387 99.9777 22.3547 100.447 22.632C100.916 22.9093 101.546 23.112 102.335 23.24L103.327 23.432C104.5 23.6453 105.556 23.9227 106.495 24.264C107.455 24.6053 108.212 25.096 108.767 25.736C109.322 26.376 109.599 27.24 109.599 28.328C109.599 29.9707 109.002 31.24 107.807 32.136C106.634 33.0107 105.044 33.448 103.039 33.448ZM113.623 33V10.6H117.303V19.272H117.847C118.018 18.9093 118.295 18.5467 118.679 18.184C119.063 17.8213 119.565 17.5227 120.183 17.288C120.823 17.0533 121.623 16.936 122.583 16.936C123.799 16.936 124.877 17.2133 125.815 17.768C126.754 18.3013 127.479 19.0587 127.991 20.04C128.525 21.0213 128.792 22.184 128.792 23.528V33H125.111V23.816C125.111 22.536 124.791 21.5867 124.151 20.968C123.533 20.328 122.647 20.008 121.495 20.008C120.194 20.008 119.17 20.4453 118.423 21.32C117.677 22.1733 117.303 23.4 117.303 25V33H113.623ZM133.611 33V17.192H137.291V33H133.611ZM135.435 15.176C134.774 15.176 134.198 14.9627 133.707 14.536C133.238 14.088 133.003 13.5013 133.003 12.776C133.003 12.0507 133.238 11.4747 133.707 11.048C134.198 10.6 134.774 10.376 135.435 10.376C136.139 10.376 136.715 10.6 137.163 11.048C137.632 11.4747 137.867 12.0507 137.867 12.776C137.867 13.5013 137.632 14.088 137.163 14.536C136.715 14.9627 136.139 15.176 135.435 15.176ZM142.255 39.4V17.192H145.871V19.272H146.415C146.777 18.6107 147.353 18.024 148.143 17.512C148.953 17 150.105 16.744 151.599 16.744C152.879 16.744 154.063 17.064 155.151 17.704C156.26 18.3227 157.145 19.24 157.807 20.456C158.468 21.672 158.799 23.1333 158.799 24.84V25.352C158.799 27.0587 158.468 28.52 157.807 29.736C157.145 30.952 156.271 31.88 155.183 32.52C154.095 33.1387 152.9 33.448 151.599 33.448C150.596 33.448 149.753 33.3307 149.071 33.096C148.409 32.8613 147.865 32.552 147.439 32.168C147.033 31.784 146.713 31.4 146.479 31.016H145.935V39.4H142.255ZM150.511 30.248C151.855 30.248 152.953 29.8213 153.807 28.968C154.681 28.0933 155.119 26.856 155.119 25.256V24.936C155.119 23.3147 154.681 22.0773 153.807 21.224C152.932 20.3707 151.833 19.944 150.511 19.944C149.188 19.944 148.079 20.3707 147.183 21.224C146.308 22.0773 145.871 23.3147 145.871 24.936V25.256C145.871 26.856 146.308 28.0933 147.183 28.968C148.079 29.8213 149.188 30.248 150.511 30.248ZM169.52 33.448C167.472 33.448 165.787 33 164.464 32.104C163.142 31.208 162.342 29.896 162.064 28.168L165.456 27.304C165.606 28.1147 165.872 28.7547 166.256 29.224C166.64 29.6933 167.11 30.024 167.664 30.216C168.24 30.408 168.859 30.504 169.52 30.504C170.523 30.504 171.27 30.3227 171.76 29.96C172.272 29.5973 172.528 29.1387 172.528 28.584C172.528 28.008 172.283 27.5813 171.792 27.304C171.323 27.0267 170.598 26.792 169.616 26.6L168.624 26.44C167.536 26.2267 166.544 25.9387 165.648 25.576C164.752 25.192 164.027 24.68 163.472 24.04C162.939 23.3787 162.672 22.5467 162.672 21.544C162.672 20.008 163.238 18.824 164.368 17.992C165.52 17.16 167.024 16.744 168.88 16.744C170.651 16.744 172.112 17.1387 173.264 17.928C174.416 18.7173 175.163 19.7733 175.504 21.096L172.112 22.12C171.942 21.224 171.568 20.5947 170.992 20.232C170.416 19.848 169.712 19.656 168.88 19.656C168.027 19.656 167.366 19.8053 166.896 20.104C166.448 20.4027 166.224 20.8293 166.224 21.384C166.224 21.9387 166.459 22.3547 166.928 22.632C167.398 22.9093 168.027 23.112 168.816 23.24L169.808 23.432C170.982 23.6453 172.038 23.9227 172.976 24.264C173.936 24.6053 174.694 25.096 175.248 25.736C175.803 26.376 176.08 27.24 176.08 28.328C176.08 29.9707 175.483 31.24 174.288 32.136C173.115 33.0107 171.526 33.448 169.52 33.448Z" fill="#1E1E1E"/>
<rect x="918" width="217" height="44" rx="12" fill="#793EF5"/>
<path d="M946.491 22H947.333" stroke="white" stroke-width="1.5" stroke-linecap="round" stroke-linejoin="round"/>
<path d="M940.667 22H943.842" stroke="white" stroke-width="1.5" stroke-linecap="round" stroke-linejoin="round"/>
<path d="M944 25.3332V18.6665" stroke="white" stroke-width="1.5" stroke-linecap="round" stroke-linejoin="round"/>
<path d="M935.667 22.8665V24.4998C935.667 28.6665 937.334 30.3332 941.5 30.3332H946.5C950.667 30.3332 952.334 28.6665 952.334 24.4998V19.4998C952.334 15.3332 950.667 13.6665 946.5 13.6665H941.5C937.334 13.6665 935.667 15.3332 935.667 19.4998" stroke="white" stroke-width="1.5" stroke-linecap="round" stroke-linejoin="round"/>
<path d="M966.766 27.196C965.6 27.196 964.671 26.86 963.98 26.188C963.29 25.5067 962.944 24.5173 962.944 23.22V20.98C962.944 19.6827 963.29 18.698 963.98 18.026C964.671 17.3447 965.6 17.004 966.766 17.004C967.924 17.004 968.81 17.326 969.426 17.97C970.052 18.614 970.364 19.496 970.364 20.616V20.686H969.202V20.574C969.202 19.8367 969.002 19.2347 968.6 18.768C968.208 18.292 967.597 18.054 966.766 18.054C965.936 18.054 965.287 18.3107 964.82 18.824C964.354 19.328 964.12 20.0373 964.12 20.952V23.248C964.12 24.1627 964.354 24.8767 964.82 25.39C965.287 25.894 965.936 26.146 966.766 26.146C967.597 26.146 968.208 25.9127 968.6 25.446C969.002 24.97 969.202 24.3633 969.202 23.626V23.402H970.364V23.584C970.364 24.704 970.052 25.586 969.426 26.23C968.81 26.874 967.924 27.196 966.766 27.196ZM972.649 27V20.154H973.727V20.994H973.923C974.044 20.6953 974.231 20.476 974.483 20.336C974.735 20.196 975.066 20.126 975.477 20.126H976.289V21.134H975.407C974.912 21.134 974.511 21.274 974.203 21.554C973.904 21.8247 973.755 22.2493 973.755 22.828V27H972.649ZM981.216 27.196C980.525 27.196 979.919 27.0513 979.396 26.762C978.873 26.4633 978.467 26.048 978.178 25.516C977.889 24.984 977.744 24.368 977.744 23.668V23.5C977.744 22.7907 977.889 22.17 978.178 21.638C978.467 21.106 978.869 20.6953 979.382 20.406C979.895 20.1073 980.483 19.958 981.146 19.958C981.79 19.958 982.359 20.098 982.854 20.378C983.349 20.6487 983.736 21.0407 984.016 21.554C984.296 22.0673 984.436 22.6693 984.436 23.36V23.864H978.85C978.878 24.6013 979.116 25.18 979.564 25.6C980.012 26.0107 980.572 26.216 981.244 26.216C981.832 26.216 982.285 26.0807 982.602 25.81C982.919 25.5393 983.162 25.2173 983.33 24.844L984.282 25.306C984.142 25.5953 983.946 25.8847 983.694 26.174C983.451 26.4633 983.129 26.706 982.728 26.902C982.336 27.098 981.832 27.196 981.216 27.196ZM978.864 22.954H983.316C983.279 22.3193 983.059 21.8247 982.658 21.47C982.266 21.1153 981.762 20.938 981.146 20.938C980.521 20.938 980.007 21.1153 979.606 21.47C979.205 21.8247 978.957 22.3193 978.864 22.954ZM988.865 27.196C988.389 27.196 987.955 27.112 987.563 26.944C987.171 26.776 986.863 26.5333 986.639 26.216C986.415 25.8987 986.303 25.5113 986.303 25.054C986.303 24.5873 986.415 24.2047 986.639 23.906C986.863 23.598 987.171 23.3693 987.563 23.22C987.955 23.0613 988.394 22.982 988.879 22.982H991.189V22.478C991.189 21.9927 991.045 21.61 990.755 21.33C990.475 21.05 990.055 20.91 989.495 20.91C988.945 20.91 988.515 21.0453 988.207 21.316C987.899 21.5773 987.689 21.932 987.577 22.38L986.541 22.044C986.653 21.6613 986.831 21.316 987.073 21.008C987.316 20.6907 987.638 20.4387 988.039 20.252C988.45 20.056 988.94 19.958 989.509 19.958C990.387 19.958 991.068 20.1867 991.553 20.644C992.039 21.092 992.281 21.7267 992.281 22.548V25.642C992.281 25.922 992.412 26.062 992.673 26.062H993.303V27H992.337C992.029 27 991.782 26.916 991.595 26.748C991.409 26.5707 991.315 26.3373 991.315 26.048V25.978H991.147C991.045 26.1553 990.905 26.342 990.727 26.538C990.559 26.7247 990.326 26.8787 990.027 27C989.729 27.1307 989.341 27.196 988.865 27.196ZM988.991 26.244C989.645 26.244 990.172 26.0527 990.573 25.67C990.984 25.278 991.189 24.732 991.189 24.032V23.878H988.921C988.483 23.878 988.119 23.976 987.829 24.172C987.549 24.3587 987.409 24.6433 987.409 25.026C987.409 25.4087 987.554 25.7073 987.843 25.922C988.142 26.1367 988.525 26.244 988.991 26.244ZM997.287 27C996.895 27 996.592 26.8927 996.377 26.678C996.172 26.4633 996.069 26.1693 996.069 25.796V21.12H994.011V20.154H996.069V17.718H997.175V20.154H999.415V21.12H997.175V25.628C997.175 25.908 997.31 26.048 997.581 26.048H999.107V27H997.287ZM1004.5 27.196C1003.81 27.196 1003.2 27.0513 1002.68 26.762C1002.15 26.4633 1001.75 26.048 1001.46 25.516C1001.17 24.984 1001.02 24.368 1001.02 23.668V23.5C1001.02 22.7907 1001.17 22.17 1001.46 21.638C1001.75 21.106 1002.15 20.6953 1002.66 20.406C1003.18 20.1073 1003.76 19.958 1004.43 19.958C1005.07 19.958 1005.64 20.098 1006.13 20.378C1006.63 20.6487 1007.02 21.0407 1007.3 21.554C1007.58 22.0673 1007.72 22.6693 1007.72 23.36V23.864H1002.13C1002.16 24.6013 1002.4 25.18 1002.84 25.6C1003.29 26.0107 1003.85 26.216 1004.52 26.216C1005.11 26.216 1005.56 26.0807 1005.88 25.81C1006.2 25.5393 1006.44 25.2173 1006.61 24.844L1007.56 25.306C1007.42 25.5953 1007.23 25.8847 1006.97 26.174C1006.73 26.4633 1006.41 26.706 1006.01 26.902C1005.62 27.098 1005.11 27.196 1004.5 27.196ZM1002.14 22.954H1006.6C1006.56 22.3193 1006.34 21.8247 1005.94 21.47C1005.55 21.1153 1005.04 20.938 1004.43 20.938C1003.8 20.938 1003.29 21.1153 1002.89 21.47C1002.48 21.8247 1002.24 22.3193 1002.14 22.954ZM1014 27V17.2H1016.28L1019.7 26.258H1019.88V17.2H1021.04V27H1018.76L1015.36 17.928H1015.16V27H1014ZM1026.87 27.196C1026.18 27.196 1025.58 27.0513 1025.05 26.762C1024.53 26.4633 1024.13 26.048 1023.84 25.516C1023.55 24.984 1023.4 24.368 1023.4 23.668V23.5C1023.4 22.7907 1023.55 22.17 1023.84 21.638C1024.13 21.106 1024.53 20.6953 1025.04 20.406C1025.55 20.1073 1026.14 19.958 1026.8 19.958C1027.45 19.958 1028.02 20.098 1028.51 20.378C1029.01 20.6487 1029.39 21.0407 1029.67 21.554C1029.95 22.0673 1030.09 22.6693 1030.09 23.36V23.864H1024.51C1024.54 24.6013 1024.77 25.18 1025.22 25.6C1025.67 26.0107 1026.23 26.216 1026.9 26.216C1027.49 26.216 1027.94 26.0807 1028.26 25.81C1028.58 25.5393 1028.82 25.2173 1028.99 24.844L1029.94 25.306C1029.8 25.5953 1029.6 25.8847 1029.35 26.174C1029.11 26.4633 1028.79 26.706 1028.39 26.902C1027.99 27.098 1027.49 27.196 1026.87 27.196ZM1024.52 22.954H1028.97C1028.94 22.3193 1028.72 21.8247 1028.32 21.47C1027.92 21.1153 1027.42 20.938 1026.8 20.938C1026.18 20.938 1025.67 21.1153 1025.26 21.47C1024.86 21.8247 1024.62 22.3193 1024.52 22.954ZM1033.24 27L1031.87 20.154H1032.99L1034.12 26.258H1034.32L1035.81 20.154H1037.65L1039.15 26.258H1039.34L1040.48 20.154H1041.6L1040.22 27H1038.33L1036.82 20.896H1036.64L1035.13 27H1033.24ZM1047.85 27V17.2H1049.03V27H1047.85ZM1051.71 27V20.154H1052.79V21.316H1052.99C1053.13 20.9893 1053.39 20.6953 1053.74 20.434C1054.11 20.1633 1054.64 20.028 1055.34 20.028C1055.85 20.028 1056.31 20.1353 1056.71 20.35C1057.12 20.5647 1057.45 20.882 1057.69 21.302C1057.93 21.722 1058.05 22.24 1058.05 22.856V27H1056.95V22.94C1056.95 22.2587 1056.77 21.764 1056.43 21.456C1056.09 21.148 1055.64 20.994 1055.06 20.994C1054.39 20.994 1053.85 21.2087 1053.43 21.638C1053.02 22.0673 1052.82 22.7067 1052.82 23.556V27H1051.71ZM1063.03 27C1062.63 27 1062.33 26.8927 1062.12 26.678C1061.91 26.4633 1061.81 26.1693 1061.81 25.796V21.12H1059.75V20.154H1061.81V17.718H1062.91V20.154H1065.15V21.12H1062.91V25.628C1062.91 25.908 1063.05 26.048 1063.32 26.048H1064.85V27H1063.03ZM1070.23 27.196C1069.54 27.196 1068.94 27.0513 1068.41 26.762C1067.89 26.4633 1067.49 26.048 1067.2 25.516C1066.91 24.984 1066.76 24.368 1066.76 23.668V23.5C1066.76 22.7907 1066.91 22.17 1067.2 21.638C1067.49 21.106 1067.89 20.6953 1068.4 20.406C1068.91 20.1073 1069.5 19.958 1070.16 19.958C1070.81 19.958 1071.38 20.098 1071.87 20.378C1072.37 20.6487 1072.75 21.0407 1073.03 21.554C1073.31 22.0673 1073.45 22.6693 1073.45 23.36V23.864H1067.87C1067.9 24.6013 1068.13 25.18 1068.58 25.6C1069.03 26.0107 1069.59 26.216 1070.26 26.216C1070.85 26.216 1071.3 26.0807 1071.62 25.81C1071.94 25.5393 1072.18 25.2173 1072.35 24.844L1073.3 25.306C1073.16 25.5953 1072.96 25.8847 1072.71 26.174C1072.47 26.4633 1072.15 26.706 1071.75 26.902C1071.35 27.098 1070.85 27.196 1070.23 27.196ZM1067.88 22.954H1072.33C1072.3 22.3193 1072.08 21.8247 1071.68 21.47C1071.28 21.1153 1070.78 20.938 1070.16 20.938C1069.54 20.938 1069.03 21.1153 1068.62 21.47C1068.22 21.8247 1067.98 22.3193 1067.88 22.954ZM1075.78 27V20.154H1076.86V20.994H1077.06C1077.18 20.6953 1077.37 20.476 1077.62 20.336C1077.87 20.196 1078.2 20.126 1078.61 20.126H1079.42V21.134H1078.54C1078.05 21.134 1077.65 21.274 1077.34 21.554C1077.04 21.8247 1076.89 22.2493 1076.89 22.828V27H1075.78ZM1081.46 27V20.154H1082.54V21.316H1082.74C1082.88 20.9893 1083.14 20.6953 1083.49 20.434C1083.86 20.1633 1084.39 20.028 1085.09 20.028C1085.6 20.028 1086.06 20.1353 1086.46 20.35C1086.87 20.5647 1087.2 20.882 1087.44 21.302C1087.68 21.722 1087.8 22.24 1087.8 22.856V27H1086.7V22.94C1086.7 22.2587 1086.52 21.764 1086.18 21.456C1085.84 21.148 1085.39 20.994 1084.81 20.994C1084.14 20.994 1083.6 21.2087 1083.18 21.638C1082.77 22.0673 1082.57 22.7067 1082.57 23.556V27H1081.46ZM1093.21 27.196C1092.36 27.196 1091.64 27 1091.05 26.608C1090.47 26.216 1090.12 25.5953 1090 24.746L1091.05 24.508C1091.12 24.956 1091.26 25.3107 1091.47 25.572C1091.67 25.824 1091.93 26.006 1092.23 26.118C1092.53 26.2207 1092.86 26.272 1093.21 26.272C1093.72 26.272 1094.12 26.1693 1094.42 25.964C1094.72 25.7587 1094.87 25.4833 1094.87 25.138C1094.87 24.7833 1094.73 24.536 1094.44 24.396C1094.16 24.2467 1093.77 24.1253 1093.28 24.032L1092.7 23.934C1092.26 23.8593 1091.86 23.7427 1091.5 23.584C1091.13 23.4253 1090.84 23.2107 1090.63 22.94C1090.41 22.6693 1090.31 22.3287 1090.31 21.918C1090.31 21.302 1090.55 20.8213 1091.02 20.476C1091.5 20.1307 1092.13 19.958 1092.91 19.958C1093.69 19.958 1094.31 20.1353 1094.79 20.49C1095.27 20.8353 1095.59 21.3253 1095.73 21.96L1094.69 22.226C1094.61 21.7313 1094.4 21.386 1094.09 21.19C1093.77 20.9847 1093.38 20.882 1092.91 20.882C1092.44 20.882 1092.08 20.9707 1091.81 21.148C1091.53 21.316 1091.4 21.568 1091.4 21.904C1091.4 22.2307 1091.53 22.4733 1091.78 22.632C1092.04 22.7813 1092.38 22.8933 1092.81 22.968L1093.39 23.066C1093.87 23.15 1094.31 23.2667 1094.69 23.416C1095.08 23.556 1095.39 23.7613 1095.61 24.032C1095.85 24.3027 1095.96 24.6573 1095.96 25.096C1095.96 25.768 1095.71 26.286 1095.21 26.65C1094.71 27.014 1094.05 27.196 1093.21 27.196ZM1098.23 27V17.2H1099.34V21.246H1099.53C1099.63 21.0407 1099.77 20.8493 1099.95 20.672C1100.15 20.4853 1100.4 20.3313 1100.69 20.21C1101 20.0887 1101.39 20.028 1101.86 20.028C1102.37 20.028 1102.83 20.14 1103.23 20.364C1103.64 20.5787 1103.97 20.896 1104.21 21.316C1104.45 21.7267 1104.57 22.24 1104.57 22.856V27H1103.47V22.94C1103.47 22.2587 1103.29 21.764 1102.95 21.456C1102.61 21.148 1102.15 20.994 1101.58 20.994C1100.91 20.994 1100.37 21.2087 1099.95 21.638C1099.54 22.0673 1099.34 22.7067 1099.34 23.556V27H1098.23ZM1107.22 27V20.154H1108.32V27H1107.22ZM1107.78 19.09C1107.53 19.09 1107.33 19.0107 1107.16 18.852C1107 18.6933 1106.92 18.4927 1106.92 18.25C1106.92 17.998 1107 17.7927 1107.16 17.634C1107.33 17.4753 1107.53 17.396 1107.78 17.396C1108.02 17.396 1108.22 17.4753 1108.38 17.634C1108.54 17.7927 1108.62 17.998 1108.62 18.25C1108.62 18.4927 1108.54 18.6933 1108.38 18.852C1108.22 19.0107 1108.02 19.09 1107.78 19.09ZM1111.05 29.8V20.154H1112.13V21.288H1112.32C1112.5 20.9427 1112.78 20.6347 1113.18 20.364C1113.58 20.0933 1114.13 19.958 1114.84 19.958C1115.43 19.958 1115.97 20.1027 1116.45 20.392C1116.95 20.672 1117.34 21.0733 1117.63 21.596C1117.93 22.1187 1118.08 22.7487 1118.08 23.486V23.668C1118.08 24.396 1117.93 25.026 1117.64 25.558C1117.35 26.09 1116.96 26.496 1116.47 26.776C1115.98 27.056 1115.44 27.196 1114.84 27.196C1114.37 27.196 1113.96 27.1307 1113.62 27C1113.3 26.8787 1113.03 26.72 1112.83 26.524C1112.62 26.328 1112.46 26.1273 1112.35 25.922H1112.15V29.8H1111.05ZM1114.55 26.216C1115.26 26.216 1115.83 25.992 1116.27 25.544C1116.72 25.0867 1116.94 24.452 1116.94 23.64V23.514C1116.94 22.702 1116.72 22.072 1116.27 21.624C1115.83 21.1667 1115.26 20.938 1114.55 20.938C1113.85 20.938 1113.27 21.1667 1112.81 21.624C1112.36 22.072 1112.14 22.702 1112.14 23.514V23.64C1112.14 24.452 1112.36 25.0867 1112.81 25.544C1113.27 25.992 1113.85 26.216 1114.55 26.216Z" fill="white"/>
</svg>
